<svg xmlns:xlink="http://www.w3.org/1999/xlink" xmlns="http://www.w3.org/2000/svg" id="Groupe_19" data-name="Groupe 19" width="339" height="312.982" viewBox="0 0 339 312.982">
  <path id="Tracé_18" data-name="Tracé 18" d="M343.234,350.971,291.313,296.39l-52.333,12.9Z" transform="translate(-4.234 -37.989)" fill="#c8357a"/>
  <path id="Tracé_19" data-name="Tracé 19" d="M537.05,218.025l28.506-36.066,25.272,25.233Z" transform="translate(-537.05 -33.057)" fill="#2e3d8c"/>
  <path id="Tracé_20" data-name="Tracé 20" d="M562.005,167.8,458.45,180.44l61.318,68.945Z" transform="translate(-433.016 -32.447)" fill="#a5c5db"/>
  <path id="Tracé_21" data-name="Tracé 21" d="M476.41,59.78,381.84,244.729l115.545-36.582Z" transform="translate(-295.087 -27.791)" fill="#f9dd39"/>
  <path id="Tracé_22" data-name="Tracé 22" d="M398.072,26.35,271.79,58.339l20.976,148.367Z" transform="translate(-90.468 -26.35)" fill="#dc9234"/>
  <path id="Tracé_23" data-name="Tracé 23" d="M364.526,40.76l-15.741,5.263L266.97,186.161Z" transform="translate(-52.309 -26.971)" fill="#ce5c34"/>
  <path id="Tracé_24" data-name="Tracé 24" d="M377.439,290.08,279.73,214.83l15.559,97.02Z" transform="translate(-77.432 -34.474)" fill="#872a62"/>
  <path id="Tracé_25" data-name="Tracé 25" d="M496.574,320.692,478.556,214.83,363.01,251.412Z" transform="translate(-276.258 -34.474)" fill="#63a99d"/>
</svg>