<svg xmlns="http://www.w3.org/2000/svg" xmlns:xlink="http://www.w3.org/1999/xlink" version="1.1" id="Groupe_19" x="0px" y="0px" width="439" height="405.3" viewBox="0 0 439 405.3" style="enable-background:new 0 0 439 405.3;" xml:space="preserve">
<style type="text/css">
	.st0{fill:none;}
	.st1{fill:#2E3D8C;}
	.st2{fill:#A5C5DB;}
	.st3{fill:#F9DD39;}
	.st4{fill:#DC9234;}
	.st5{fill:#CE5C34;}
	.st6{fill:#872A62;}
	.st7{fill:#63A99D;}
</style>
<g>
	<polygon class="st0" points="415.7,233.6 415.7,233.6 415.7,233.6 415.7,233.6 266.1,280.9 266.1,280.9 415.7,233.6 388.5,41.4    415.7,233.6 439,193.6 439,193.6 431.7,206.2 439,195.2 439,251.5 415.7,233.6  "/>
	<polygon class="st0" points="439,358.4 439,370.7 437,358.9  "/>
	<polygon class="st1" points="153.7,239.5 189.2,194.6 217.8,226.6  "/>
	<polygon class="st2" points="217.8,226.6 223.4,225.5 190.6,192.8 189.2,194.6 186.6,191.7 320,175.4 266.1,280.9 266.1,280.9    266.1,280.9 266.1,280.9 266.1,281 266.1,281  "/>
	<polygon class="st2" points="223.4,225.5 217.8,226.6 189.2,194.6 190.6,192.8  "/>
	<polygon class="st3" points="266.1,280.9 320.8,175.3 320,175.4 388.5,41.4 415.7,233.6  "/>
	<polygon class="st3" points="266.1,280.9 266.1,280.9 320,175.4 320.8,175.3  "/>
	<polygon class="st4" points="415.7,233.6 388.5,41.4 439,28.6 439,193.6  "/>
	<polygon class="st5" points="439,193.6 439,195.2 431.7,206.2  "/>
	<polygon class="st6" points="415.7,233.6 439,251.5 439,358.4 437,358.9  "/>
	<polygon class="st6" points="415.7,233.6 415.7,233.6 415.7,233.6  "/>
	<polygon class="st7" points="415.7,233.6 435.8,359.2 437,358.9 439,370.7 266.1,281 266.1,280.9  "/>
	<polygon class="st7" points="415.7,233.6 415.7,233.6 415.7,233.6  "/>
	<polygon class="st7" points="266.1,280.9 266.1,281 266.1,280.9  "/>
	<polygon class="st7" points="415.7,233.6 437,358.9 435.8,359.2 415.7,233.6 415.7,233.6  "/>
</g>
</svg>