<svg xmlns="http://www.w3.org/2000/svg" xmlns:xlink="http://www.w3.org/1999/xlink" version="1.1" id="Calque_1" x="0px" y="0px" width="48" height="47" viewBox="0 0 48 47" style="enable-background:new 0 0 48 47;" xml:space="preserve">
<style type="text/css">
	.st0{fill:#F9DD39;}
	.st1{fill:#63A99D;}
</style>
<g id="Groupe_47" transform="translate(-424 -3487)">
	<ellipse id="Ellipse_4" class="st0" cx="448" cy="3510.5" rx="24" ry="23.5"/>
	<path id="Tracé_60" class="st1" d="M444.1,3517.9c-0.1-0.4-0.2-0.8-0.3-1.1c-0.1-0.4-0.1-0.8-0.1-1.2c0-0.6,0-1.1,0.2-1.6   c0.1-0.5,0.3-1,0.5-1.4c0.2-0.4,0.5-0.9,0.9-1.2c0.4-0.4,0.8-0.8,1.2-1.2c0.5-0.4,0.9-0.8,1.3-1.2c0.3-0.3,0.7-0.7,0.9-1.1   c0.3-0.3,0.4-0.7,0.6-1.1c0.1-0.4,0.2-0.8,0.2-1.3c0-0.4-0.1-0.8-0.2-1.1c-0.1-0.3-0.3-0.6-0.6-0.9c-0.3-0.3-0.6-0.5-1-0.6   c-0.4-0.1-0.8-0.2-1.3-0.2c-1.1,0-2.2,0.2-3.2,0.6c-1.1,0.5-2.2,1.1-3.1,1.9v-5.9c1-0.6,2.1-1.1,3.3-1.3c1.2-0.3,2.4-0.5,3.7-0.4   c1.1,0,2.3,0.1,3.4,0.4c1,0.2,1.9,0.7,2.7,1.3c0.8,0.6,1.4,1.3,1.8,2.2c0.5,1,0.7,2.1,0.7,3.2c0,0.7-0.1,1.5-0.3,2.2   c-0.2,0.6-0.5,1.3-0.8,1.8c-0.4,0.6-0.8,1.2-1.3,1.6c-0.6,0.6-1.2,1.1-1.8,1.6c-0.5,0.4-0.9,0.7-1.2,1.1c-0.3,0.3-0.6,0.6-0.9,1   c-0.2,0.3-0.4,0.7-0.5,1c-0.1,0.4-0.2,0.8-0.2,1.2c0,0.3,0,0.6,0.1,1c0.1,0.3,0.2,0.6,0.3,0.8L444.1,3517.9z M447,3526.4   c-1,0-1.9-0.3-2.6-0.9c-0.7-0.6-1-1.4-1-2.3c0-0.9,0.4-1.7,1-2.3c0.7-0.6,1.6-1,2.6-0.9c0.9,0,1.9,0.3,2.6,0.9c0.7,0.6,1,1.4,1,2.3   c0,0.9-0.3,1.7-1,2.3C448.9,3526.2,447.9,3526.5,447,3526.4z"/>
</g>
</svg>