<svg xmlns="http://www.w3.org/2000/svg" xmlns:xlink="http://www.w3.org/1999/xlink" version="1.1" id="Calque_1" x="0px" y="0px" width="108.6" height="82.8" viewBox="0 0 108.6 82.8" style="enable-background:new 0 0 108.6 82.8;" xml:space="preserve">
<style type="text/css">
	.st0{fill:#DC186A;}
	.st1{fill:#002D7E;}
	.st2{fill:#82BBD5;}
	.st3{fill:#FFD500;}
	.st4{fill:#F27D14;}
	.st5{fill:#E44320;}
	.st6{fill:#871652;}
	.st7{fill:#249D8C;}
	.st8{fill:#161615;}
</style>
<g id="Groupe_40" transform="translate(-28.049 -26.346)">
	<path id="Tracé_34" class="st0" d="M68.6,89.2l10.4-11l10.5,2.6L68.6,89.2z"/>
	<path id="Tracé_35" class="st1" d="M136.6,63.5l-5.7-7.2l-5.1,5.1L136.6,63.5z"/>
	<path id="Tracé_36" class="st2" d="M110.7,53.5l20.8,2.5l-12.3,13.8L110.7,53.5z"/>
	<path id="Tracé_37" class="st3" d="M100.2,32.8l19,37.1L96,62.6L100.2,32.8z"/>
	<path id="Tracé_38" class="st4" d="M74.9,26.3l25.4,6.4L96,62.6L74.9,26.3z"/>
	<path id="Tracé_39" class="st5" d="M73.9,29.1l3.2,1.1l16.4,28.1L73.9,29.1z"/>
	<path id="Tracé_40" class="st6" d="M76.4,77.7L96,62.6L92.9,82L76.4,77.7z"/>
	<path id="Tracé_41" class="st7" d="M92.4,83.8L96,62.6l23.2,7.3L92.4,83.8z"/>
	<g id="Groupe_39" transform="translate(28.049 87.413)">
		<path id="Tracé_42" class="st8" d="M90.2,20.5h-8.9l8.2-14.8H79.2v1.2h8.3l-8.2,14.8h10.9V20.5z"/>
		<path id="Tracé_43" class="st8" d="M0,0v21.5h11.2v-0.9H1.2L1.2,0H0z"/>
		<g id="Groupe_37" transform="translate(14.999 0.084)">
			<path id="Tracé_44" class="st8" d="M2.3,0.4c-0.5-0.5-1.4-0.5-1.9,0C0.1,0.6,0,1,0,1.3C0,1.7,0.1,2,0.4,2.2     c0.5,0.5,1.4,0.5,1.9,0C2.5,2,2.7,1.7,2.6,1.3C2.7,1,2.5,0.6,2.3,0.4z"/>
			<path id="Tracé_45" class="st8" d="M0.7,5.6l0,15.8h1.2l0-15.8H0.7z"/>
		</g>
		<path id="Tracé_46" class="st8" d="M24.7,19c3.4,3.4,9,3.4,12.4,0c3.4-3.3,3.4-8.8,0.1-12.2c0,0-0.1-0.1-0.1-0.1    c-3.4-3.4-9-3.4-12.4,0c-0.3,0.3-0.6,0.7-0.9,1l-0.2,0.3V0h-1.2l0,21.5h1.2v-3.8l0.2,0.3C24.1,18.3,24.4,18.7,24.7,19z M23.6,14.4    v-3c0.3-1.4,1-2.7,2-3.7c2.9-2.9,7.7-2.9,10.6,0c2.9,2.8,2.9,7.5,0.1,10.4c0,0-0.1,0.1-0.1,0.1c-2.9,2.9-7.7,2.9-10.6,0    C24.6,17.1,23.9,15.8,23.6,14.4L23.6,14.4z"/>
		<path id="Tracé_47" class="st8" d="M69.7,6.7V5.4c-1.4,0.2-2.8,0.9-3.7,2c-0.4,0.4-0.7,0.8-1,1.2l-0.2,0.4V5.7h-1.2l0,15.8h1.2    l0-8.2c0-1.9,0.8-3.7,2.2-5C67.6,7.4,68.6,6.9,69.7,6.7z"/>
		<g id="Groupe_38" transform="translate(73.132 0.084)">
			<rect id="Rectangle_30" x="0.7" y="5.6" class="st8" width="1.2" height="15.8"/>
			<path id="Tracé_48" class="st8" d="M2.3,0.4c-0.5-0.5-1.4-0.5-1.9,0C0.1,0.6,0,1,0,1.3C0,1.7,0.1,2,0.4,2.2     c0.5,0.5,1.4,0.5,1.9,0C2.5,2,2.7,1.7,2.6,1.3C2.7,1,2.5,0.6,2.3,0.4z"/>
		</g>
		<path id="Tracé_49" class="st8" d="M108.3,15.4c0.1-0.4,0.2-0.8,0.3-1.2l-1.3,0.2l0,0c0,0,0,0.1,0,0.1c0,0,0,0.1,0,0.1l0,0    c0,0,0,0.1,0,0.1c0,0.1,0,0.1-0.1,0.2c-0.5,1.6-1.5,3-2.9,3.9c-0.2,0.1-0.5,0.3-0.7,0.4c-0.6,0.3-1.3,0.6-2.1,0.7    c-1.3,0.2-2.5,0.2-3.8-0.2c-1.8-0.5-3.3-1.7-4.3-3.3l-0.1-0.1L108,8.9c0-0.1-0.1-0.2-0.1-0.2c-0.2-0.3-0.4-0.6-0.5-0.9    c-1.1-1.7-2.8-2.9-4.8-3.4c-0.9-0.3-1.8-0.4-2.7-0.4c-1.4,0-2.8,0.4-4.1,1c-4.3,2.2-6,7.4-3.8,11.7c0,0.1,0.1,0.1,0.1,0.2    c0.2,0.3,0.3,0.6,0.5,0.9c1.1,1.7,2.8,2.9,4.7,3.4c2.3,0.7,4.7,0.5,6.8-0.6c0.4-0.2,0.7-0.4,1.1-0.7l0.1-0.1    C106.8,18.7,107.9,17.1,108.3,15.4z M92.8,15.2C91.5,11.7,93,7.7,96.4,6c1.8-0.9,3.9-1.1,5.8-0.5c0.1,0,0.2,0.1,0.3,0.1l0.1,0    c1.4,0.5,2.7,1.4,3.6,2.6l0.1,0.1l-0.1,0.1l-13.2,6.8L92.8,15.2z"/>
		<path id="Tracé_50" class="st8" d="M42.9,10.1c-0.7,2.2-0.5,4.7,0.7,6.7c0.2,0.3,0.3,0.6,0.5,0.9c1.1,1.7,2.8,2.9,4.7,3.4    c2.3,0.7,4.7,0.5,6.8-0.6c0.4-0.2,0.7-0.4,1.1-0.7l0.1-0.1c1.4-1.1,2.4-2.6,2.9-4.3c0.1-0.4,0.2-0.8,0.3-1.2l-1.3,0.2l0,0    c0,0,0,0.1,0,0.1c0,0,0,0.1,0,0.1l0,0c0,0,0,0.1,0,0.1c0,0.1,0,0.1-0.1,0.2c-0.5,1.6-1.5,3-2.9,3.9c-0.2,0.1-0.5,0.3-0.7,0.4    c-0.6,0.3-1.3,0.6-2.1,0.7c-1.3,0.2-2.5,0.2-3.8-0.2c-1.8-0.5-3.3-1.7-4.3-3.3l-0.1-0.1l14.6-7.5c0-0.1-0.1-0.2-0.1-0.2    C59.2,8.3,59,8,58.8,7.8C57.6,6.1,56,4.9,54,4.3c-0.9-0.3-1.8-0.4-2.7-0.4c-1.4,0-2.8,0.4-4.1,1C45.1,6,43.6,7.8,42.9,10.1z     M47.9,6.1c1.8-0.9,3.9-1.1,5.8-0.5c0.1,0,0.2,0.1,0.3,0.1l0.1,0c1.4,0.5,2.7,1.4,3.6,2.6l0.1,0.1l-0.1,0.1l-13.2,6.8l-0.1-0.1    C43,11.7,44.5,7.8,47.9,6.1L47.9,6.1z"/>
	</g>
</g>
</svg>